<?xml version="1.0" encoding="utf-8"?>
<!-- Generator: Adobe Illustrator 17.0.0, SVG Export Plug-In . SVG Version: 6.00 Build 0)  -->
<!DOCTYPE svg PUBLIC "-//W3C//DTD SVG 1.1//EN" "http://www.w3.org/Graphics/SVG/1.1/DTD/svg11.dtd">
<svg version="1.1" id="Capa_1" xmlns="http://www.w3.org/2000/svg" xmlns:xlink="http://www.w3.org/1999/xlink" x="0px" y="0px"
	 width="600px" height="312.829px" viewBox="0 0 600 312.829" enable-background="new 0 0 600 312.829" xml:space="preserve">
<g>
	<g>
		<path fill-rule="evenodd" clip-rule="evenodd" fill="#FFCB00" d="M347.66,10.252c0,0-88.135-3.453-196.271,70.979
			c-27.127,17.36-92.832,70.267-76.63,104.551c10.871,23.003,42.009,15.06,58.21,9.092c11.19-4.163,19.738-10.133,29.978-16.265
			l6.333-36.916l21.48,0.657l28.551-20.646l15.937-16.541l-7.387,37.298l61.324,0.656l-67.078,33.738l-11.082-18.073l-35.306,29.081
			c0,0-48.553,34.777-76.631,43.596c-28.024,8.872-61.377,20.537-85.865-1.809c0,0-26.757-19.55-3.378-67.966
			c17.363-44.853,66.179-80.892,106.131-103.512C133.604,48.205,223.586,1.542,347.66,10.252L347.66,10.252z"/>
		<path fill-rule="evenodd" clip-rule="evenodd" fill="#312782" d="M347.66,1.105c0,0-88.135-3.561-196.271,73.717
			c-27.127,17.965-92.832,72.841-76.63,108.386c10.871,23.878,42.009,15.664,58.21,9.476c11.19-4.328,19.738-10.517,29.978-16.87
			l-34.041-38.337l61.854,0.712l47.655-56.958l-3.167,18.346l-7.387,38.722l61.324,0.657l-67.078,34.997l-11.082,58.491
			l-35.306-41.405c0,0-48.184,31.821-76.261,41.022c-28.077,9.146-62.856,21.084-87.395-2.082c0,0-25.596-21.469-2.217-71.745
			c17.363-46.554,66.179-83.96,106.131-107.401C133.604,40.537,223.586-7.877,347.66,1.105L347.66,1.105z"/>
		<path fill-rule="evenodd" clip-rule="evenodd" fill="#0064A6" d="M234.88,101.659l16.623-19.772l-3.534,19.772l-6.808,36.749
			l62.221,0.711l-69.188,35.764l-10.292,57.121l-10.556-11.719l8.761-46.332l67.078-34.997l-61.324-0.657L234.88,101.659z
			 M183.845,200.57l-58.58,30.616l15.357-18.786c18.999-10.737,35.096-21.361,35.096-21.361L183.845,200.57z"/>
		<path fill-rule="evenodd" clip-rule="evenodd" fill="#0082C5" d="M248.179,100.565l16.097-18.403l-10.502,56.412l49.608,0.546
			l-69.188,35.764l-8.233,45.731l10.87,11.501l10.503-57.615l69.137-35.27l-62.697-0.657l-12.613-0.165l6.808-36.749
			L248.179,100.565z M188.015,205.443l-49.082,25.906l9.448-12.269l35.464-18.511L188.015,205.443z"/>
		<path fill-rule="evenodd" clip-rule="evenodd" fill="#00A6E1" d="M260.633,101.878l16.677-20.155l-10.556,56.96l-12.981-0.109
			L260.633,101.878z M316.471,139.23l13.878,0.219l-70.297,35.872l-10.501,57.067l-10.608-11.773l8.443-46.168L316.471,139.23z
			 M192.29,210.483l-41.007,21.687l10.027-12.652l26.704-14.075L192.29,210.483z"/>
	</g>
	<g>
		<g>
			<path fill-rule="evenodd" clip-rule="evenodd" fill="#FFCB00" d="M313.889,167.82l11.82,0.259c0,0,5.251-15.342,23.909-17.764
				c0,0,15.101-2.315,26.206,1.339c11.109,3.656,5.254,13.747,5.254,13.747c-2.518,5.046-11.6,7.671-17.235,8.394
				c-7.935,1.03-30.093,3.86-31.734,4.22c0,0-32.172,2.678-32.28,30.378c-0.111,15.96,18.657,17.659,31.952,17.092
				c0,0,19.804,0.825,35.836-13.952c0,0-3.554,13.387,7.551,13.952l9.52,0.259l3.39-11.686l-5.523-0.105
				c0,0-3.776,0.516-1.697-6.537l11.053-37.277c6.399-21.572,0.326-29.037-24.513-30.788
				C356.948,138.63,324.778,138.835,313.889,167.82L313.889,167.82z M377.357,179.922c-2.408,11.789-6.346,21.16-17.125,27.801
				c-4.267,2.627-12.147,6.334-24.349,7.673c0,0-24.019,3.089-24.019-11.226c0,0-0.492-11.378,15.429-15.238
				c9.686-2.318,18.824-3.089,28.508-4.481C361.161,183.678,371.119,182.084,377.357,179.922L377.357,179.922z"/>
			<path fill-rule="evenodd" clip-rule="evenodd" fill="#312782" d="M309.677,167.77l11.819,0.258c0,0,5.251-15.343,23.909-17.814
				c0,0,15.099-2.318,26.208,1.338c11.107,3.654,5.253,13.798,5.253,13.798c-2.517,5.046-11.6,7.671-17.235,8.392
				c-7.933,0.978-30.093,3.862-31.733,4.222c0,0-32.174,2.678-32.283,30.376c-0.11,15.91,18.657,17.609,31.953,17.094
				c0,0,19.806,0.825,35.838-13.952c0,0-3.556,13.334,7.55,13.952l9.52,0.206l3.393-11.688l-5.526-0.102
				c0,0-3.776,0.513-1.695-6.539l11.05-37.225c6.458-21.572,0.328-29.038-24.511-30.79
				C352.735,138.526,320.62,138.731,309.677,167.77L309.677,167.77z M373.146,179.868c-2.41,11.792-6.294,21.163-17.071,27.804
				c-4.323,2.625-12.202,6.28-24.403,7.67c0,0-24.021,3.039-24.021-11.274c0,0-0.492-11.378,15.43-15.187
				c9.684-2.318,18.822-3.091,28.505-4.481C356.948,183.627,366.908,182.032,373.146,179.868L373.146,179.868z"/>
		</g>
		<g>
			<path fill-rule="evenodd" clip-rule="evenodd" fill="#FFCB00" d="M418.089,140.618L393.4,225.332l12.011,0.105l13.344-44.579
				c6.841-22.762,21.908-30.716,45.986-31.45c5.117-0.158,25.134,1.046,14.181,30.56l-13.736,45.887l11.176,0.106l18.184-62.425
				c6.616-22.604-19.072-26.005-37.868-23.336c-11.733,1.623-23.076,7.535-30.859,15.959l4.447-15.593L418.089,140.618z"/>
			<path fill-rule="evenodd" clip-rule="evenodd" fill="#312782" d="M413.807,140.565l-24.689,84.663l12.013,0.156l13.344-44.582
				c6.839-22.813,21.908-30.714,45.984-31.447c5.117-0.157,25.189,1.045,14.181,30.557l-13.736,45.838l11.176,0.103l18.184-62.37
				c6.616-22.604-19.072-26.059-37.868-23.39c-11.733,1.675-23.076,7.535-30.86,16.013l4.447-15.593L413.807,140.565z"/>
		</g>
		<g>
			<path fill-rule="evenodd" clip-rule="evenodd" fill="#FFCB00" d="M568.527,197.33l13.569,0.158c0,0-13.9,28.252-50.039,28.513
				c0,0-48.648,3.087-32.58-48.342c0,0,11.232-33.849,48.65-37.668c0,0,54.929-8.581,40.695,45.883l-78.781-0.785
				c0,0-9.008,25.373,18.125,30.24C528.165,215.329,557.466,218.835,568.527,197.33L568.527,197.33z M512.431,175.567l66.162,0.627
				c4.003-17.474-9.562-26.63-26.077-26.473c-15.901,0.158-27.743,6.384-36.082,18.782
				C514.375,171.591,512.431,174.782,512.431,175.567L512.431,175.567z"/>
			<path fill-rule="evenodd" clip-rule="evenodd" fill="#312782" d="M564.249,197.278l13.566,0.158c0,0-13.9,28.251-49.984,28.462
				c0,0-48.703,3.138-32.635-48.29c0,0,11.23-33.903,48.648-37.723c0,0,54.93-8.526,40.697,45.884l-78.781-0.785
				c0,0-9.008,25.427,18.127,30.291C523.886,215.276,553.184,218.781,564.249,197.278L564.249,197.278z M508.15,175.464
				l66.162,0.677c4.003-17.473-9.562-26.681-26.077-26.524c-15.845,0.158-27.743,6.383-36.082,18.835
				C510.097,171.539,508.15,174.729,508.15,175.464L508.15,175.464z"/>
		</g>
	</g>
	<g>
		<path fill="#0064A6" d="M346.727,256.23h3.419l-3.185,16.716h7.745l-0.555,2.979h-11.164L346.727,256.23z"/>
		<path fill="#0064A6" d="M365.637,275.107c-1.402,0.731-3.302,1.11-5.026,1.11c-3.944,0-5.844-2.395-5.844-5.874
			c0-4.295,3.156-8.971,8.066-8.971c2.805,0,4.588,1.636,4.588,4.002c0,3.653-3.828,4.822-9.322,4.707
			c-0.059,0.495,0.058,1.459,0.379,2.015c0.555,0.964,1.578,1.461,2.923,1.461c1.608,0,2.893-0.41,3.916-0.936L365.637,275.107z
			 M362.394,263.914c-2.133,0-3.537,1.9-3.946,3.625c3.507,0.059,5.757-0.438,5.757-2.133
			C364.205,264.47,363.474,263.914,362.394,263.914z"/>
		<path fill="#0064A6" d="M369.644,281.711l2.776-14.729c0.322-1.695,0.643-3.828,0.818-5.289h3.069l-0.322,2.338h0.059
			c1.227-1.695,2.98-2.659,4.821-2.659c3.069,0,4.501,2.513,4.501,5.289c0,4.969-3.448,9.586-8.299,9.586
			c-1.315,0-2.309-0.292-2.835-0.615h-0.058l-1.14,6.079H369.644z M374.729,272.915c0.526,0.438,1.286,0.702,2.279,0.702
			c2.63,0,4.793-3.507,4.793-6.692c0-1.315-0.584-2.776-2.251-2.776c-1.724,0-3.594,1.956-4.207,5.289L374.729,272.915z"/>
		<path fill="#0064A6" d="M399.806,267.275c0,4.822-3.39,8.973-8.241,8.973c-3.594,0-5.816-2.484-5.816-5.874
			c0-4.822,3.361-9.001,8.212-9.001C397.789,261.373,399.806,264.119,399.806,267.275z M389.256,270.284
			c0,1.959,1.052,3.333,2.776,3.333c2.542,0,4.237-3.507,4.237-6.343c0-1.461-0.642-3.272-2.718-3.272
			C390.834,264.003,389.256,267.626,389.256,270.284z"/>
		<path fill="#0064A6" d="M399.78,275.925l1.841-9.819c0.351-1.695,0.555-3.184,0.731-4.412h3.01l-0.292,2.571h0.059
			c1.315-1.928,3.127-2.892,5.114-2.892c2.016,0,3.624,1.228,3.624,3.915c0,0.643-0.117,1.638-0.263,2.367l-1.578,8.271h-3.39
			l1.52-8.035c0.087-0.526,0.176-1.141,0.176-1.695c0-1.169-0.438-2.046-1.783-2.046c-1.549,0-3.536,1.869-4.149,5.202l-1.228,6.574
			H399.78z"/>
		<path fill="#0064A6" d="M425.527,275.107c-1.402,0.731-3.302,1.11-5.026,1.11c-3.945,0-5.844-2.395-5.844-5.874
			c0-4.295,3.156-8.971,8.066-8.971c2.805,0,4.588,1.636,4.588,4.002c0,3.653-3.828,4.822-9.322,4.707
			c-0.059,0.495,0.058,1.459,0.379,2.015c0.555,0.964,1.578,1.461,2.923,1.461c1.607,0,2.893-0.41,3.916-0.936L425.527,275.107z
			 M422.284,263.914c-2.133,0-3.537,1.9-3.946,3.625c3.507,0.059,5.757-0.438,5.757-2.133
			C424.095,264.47,423.365,263.914,422.284,263.914z"/>
		<path fill="#0064A6" d="M426.875,275.925l1.811-9.819c0.322-1.695,0.555-3.184,0.701-4.412h2.952l-0.292,2.484h0.029
			c1.344-1.9,3.097-2.805,4.938-2.805c2.221,0,3.244,1.402,3.361,2.923c1.256-1.959,3.069-2.894,5.026-2.923
			c1.959,0,3.478,1.256,3.478,3.799c0,0.613-0.117,1.664-0.233,2.425l-1.578,8.327h-3.302l1.49-7.948
			c0.088-0.584,0.205-1.228,0.205-1.812c0-1.197-0.497-2.015-1.754-2.015c-1.549,0-3.273,1.956-3.828,4.966l-1.287,6.809h-3.273
			l1.52-8.066c0.117-0.585,0.175-1.139,0.175-1.664c0-1.082-0.321-2.046-1.695-2.046c-1.578,0-3.389,2.133-3.916,5.025l-1.227,6.75
			H426.875z"/>
		<path fill="#0064A6" d="M463.789,267.275c0,4.822-3.39,8.973-8.241,8.973c-3.594,0-5.815-2.484-5.815-5.874
			c0-4.822,3.36-9.001,8.211-9.001C461.773,261.373,463.789,264.119,463.789,267.275z M453.239,270.284
			c0,1.959,1.052,3.333,2.776,3.333c2.542,0,4.237-3.507,4.237-6.343c0-1.461-0.642-3.272-2.718-3.272
			C454.817,264.003,453.239,267.626,453.239,270.284z"/>
		<path fill="#0064A6" d="M464.113,272.74c0.731,0.408,2.134,0.964,3.42,0.964c1.373-0.028,2.192-0.818,2.192-1.754
			c0-0.905-0.468-1.461-1.871-2.192c-1.636-0.846-2.805-2.074-2.805-3.71c0-2.748,2.396-4.676,5.757-4.676
			c1.491,0,2.718,0.351,3.361,0.731l-0.877,2.454c-0.527-0.292-1.491-0.643-2.66-0.643c-1.286,0-2.163,0.702-2.163,1.666
			c0,0.79,0.643,1.346,1.841,1.959c1.55,0.846,2.952,2.015,2.952,3.828c0,3.128-2.63,4.851-6.049,4.851
			c-1.665,0-3.215-0.467-3.974-1.023L464.113,272.74z"/>
		<path fill="#0064A6" d="M482.06,261.693l0.906,7.073c0.174,1.695,0.35,2.774,0.409,3.71h0.087c0.351-0.905,0.76-1.928,1.549-3.623
			l3.537-7.161h3.77l-7.92,14.232h-3.42l-2.425-14.232H482.06z"/>
		<path fill="#0064A6" d="M499.246,275.925c0.029-0.846,0.146-1.987,0.263-3.215h-0.087c-1.404,2.63-3.274,3.538-5.085,3.538
			c-2.542,0-4.208-1.987-4.208-4.853c0-4.851,3.39-10.022,10.024-10.022c1.549,0,3.214,0.292,4.296,0.643l-1.461,7.422
			c-0.409,2.133-0.643,4.792-0.585,6.487H499.246z M500.648,264.149c-0.35-0.089-0.789-0.146-1.402-0.146
			c-3.156,0-5.581,3.536-5.581,6.779c0,1.49,0.555,2.718,2.046,2.718c1.578,0,3.506-1.987,4.178-5.61L500.648,264.149z"/>
		<path fill="#0064A6" d="M504.187,275.925l3.974-20.749h3.39l-3.946,20.749H504.187z"/>
		<path fill="#0064A6" d="M524.382,267.275c0,4.822-3.39,8.973-8.241,8.973c-3.594,0-5.815-2.484-5.815-5.874
			c0-4.822,3.36-9.001,8.211-9.001C522.365,261.373,524.382,264.119,524.382,267.275z M513.832,270.284
			c0,1.959,1.052,3.333,2.777,3.333c2.542,0,4.237-3.507,4.237-6.343c0-1.461-0.642-3.272-2.718-3.272
			C515.41,264.003,513.832,267.626,513.832,270.284z"/>
		<path fill="#0064A6" d="M524.356,275.925l1.665-8.766c0.381-2.017,0.556-4.179,0.731-5.466h2.952
			c-0.088,0.964-0.176,1.959-0.322,3.01h0.087c0.965-1.928,2.514-3.33,4.471-3.33c0.234,0,0.497,0.028,0.731,0.059l-0.672,3.331
			c-0.176-0.028-0.409-0.059-0.643-0.059c-2.425,0-3.974,2.456-4.529,5.494l-1.082,5.728H524.356z"/>
	</g>
	<g>
		<path fill="#3F327A" d="M360.618,312.225c0.056-1.597,0.22-3.413,0.386-5.341h-0.166c-2.478,4.46-5.891,5.946-9.029,5.946
			c-4.845,0-8.148-3.743-8.148-9.359c0-9.084,6.001-18.773,19.27-18.773c3.193,0,6.661,0.604,8.919,1.32l-2.863,14.094
			c-0.661,3.47-1.156,8.755-1.046,12.114H360.618z M362.931,290.918c-0.606-0.109-1.376-0.22-2.147-0.22
			c-5.12,0-8.864,6.277-8.864,11.287c0,2.641,1.046,4.458,3.248,4.458c2.368,0,5.286-2.698,6.497-9.304L362.931,290.918z"/>
		<path fill="#3F327A" d="M393.266,277.759l-1.431,7.542h5.725l-1.156,6.002h-5.725l-1.817,9.139
			c-0.22,1.101-0.441,2.478-0.441,3.413c0,1.322,0.551,2.257,2.257,2.257c0.715,0,1.486,0,2.202-0.111l-0.936,6.223
			c-0.991,0.384-2.973,0.604-4.68,0.604c-4.735,0-6.993-2.421-6.993-5.78c0-1.487,0.166-2.973,0.551-5.01l2.092-10.735h-3.413
			l1.101-6.002h3.469l1.1-5.671L393.266,277.759z"/>
		<path fill="#3F327A" d="M423.601,285.301l-3.468,18.168c-0.661,3.413-1.046,6.332-1.432,8.755h-6.991l0.495-4.406h-0.11
			c-2.752,3.525-6.056,5.01-9.304,5.01c-4.293,0-6.881-2.421-6.881-7.542c0-1.485,0.165-3.082,0.551-4.955l2.807-15.03h7.928
			l-2.698,14.426c-0.22,1.211-0.385,2.532-0.385,3.522c0,1.762,0.661,3.139,2.698,3.139c2.697,0,5.451-3.248,6.496-8.644
			l2.368-12.443H423.601z"/>
		<path fill="#3F327A" d="M423.382,305.123c1.542,0.77,4.459,1.871,7.047,1.871c2.257,0,3.413-1.101,3.413-2.423
			s-0.881-2.257-3.358-3.468c-3.139-1.542-5.726-3.799-5.726-7.158c0-5.56,4.9-9.248,11.837-9.248c3.139,0,5.616,0.604,6.937,1.376
			l-1.871,5.614c-1.156-0.55-3.028-1.211-5.396-1.211c-2.092,0-3.524,0.936-3.524,2.369c0,1.099,1.101,2.035,3.303,3.082
			c2.918,1.488,6.001,3.634,6.001,7.379c0,6.166-5.23,9.468-12.332,9.468c-3.413,0-6.662-0.881-8.259-2.092L423.382,305.123z"/>
		<path fill="#3F327A" d="M450.8,305.123c1.542,0.77,4.459,1.871,7.047,1.871c2.257,0,3.413-1.101,3.413-2.423
			s-0.881-2.257-3.359-3.468c-3.138-1.542-5.725-3.799-5.725-7.158c0-5.56,4.9-9.248,11.837-9.248c3.139,0,5.616,0.604,6.937,1.376
			l-1.871,5.614c-1.156-0.55-3.028-1.211-5.396-1.211c-2.092,0-3.523,0.936-3.523,2.369c0,1.099,1.101,2.035,3.303,3.082
			c2.918,1.488,6.001,3.634,6.001,7.379c0,6.166-5.23,9.468-12.332,9.468c-3.413,0-6.662-0.881-8.259-2.092L450.8,305.123z"/>
		<path fill="#3F327A" d="M499.137,285.301l-3.468,18.168c-0.661,3.413-1.046,6.332-1.432,8.755h-6.992l0.495-4.406h-0.11
			c-2.753,3.525-6.056,5.01-9.305,5.01c-4.293,0-6.881-2.421-6.881-7.542c0-1.485,0.165-3.082,0.551-4.955l2.807-15.03h7.928
			l-2.698,14.426c-0.22,1.211-0.385,2.532-0.385,3.522c0,1.762,0.661,3.139,2.698,3.139c2.697,0,5.451-3.248,6.496-8.644
			l2.368-12.443H499.137z"/>
		<path fill="#3F327A" d="M520.444,310.683c-3.137,1.597-7.047,2.092-10.02,2.092c-7.708,0-11.671-4.349-11.671-11.342
			c0-8.203,5.946-16.735,15.691-16.735c5.451,0,9.359,3.027,9.359,8.037c0,6.881-6.662,9.359-17.453,9.084
			c0,0.77,0.276,1.983,0.827,2.753c1.046,1.376,2.863,2.092,5.175,2.092c2.918,0,5.396-0.661,7.543-1.706L520.444,310.683z
			 M513.452,290.477c-3.689,0-5.781,3.027-6.332,5.562c6.166,0.055,9.25-0.827,9.25-3.25
			C516.371,291.413,515.269,290.477,513.452,290.477z"/>
		<path fill="#3F327A" d="M522.702,312.225l3.413-18.169c0.661-3.413,1.102-6.386,1.432-8.755h7.047l-0.551,4.46h0.11
			c2.532-3.525,5.891-5.064,9.469-5.064c4.405,0,6.882,2.698,6.882,7.322c0,1.211-0.22,3.248-0.441,4.569l-2.973,15.636h-7.928
			l2.808-14.921c0.165-0.936,0.275-2.037,0.275-3.027c0-1.871-0.661-3.193-2.642-3.193c-2.588,0-5.615,3.248-6.717,9.193
			l-2.257,11.948H522.702z M532.943,281.504c0.606-4.46,2.533-6.938,5.286-6.938c1.541,0,2.478,0.495,3.413,1.102
			c0.826,0.55,1.541,1.047,2.147,1.047c0.881,0,1.266-0.497,1.761-2.423h3.799c-0.716,4.79-2.533,6.772-5.396,6.772
			c-1.486,0-2.697-0.497-3.524-1.101c-0.771-0.552-1.376-0.936-2.092-0.936c-0.715,0-1.266,1.045-1.542,2.478H532.943z"/>
		<path fill="#3F327A" d="M579.299,295.762c0,9.856-6.717,17.067-16.076,17.067c-6.827,0-11.396-4.458-11.396-11.121
			c0-9.359,6.496-17.01,16.076-17.01C575.115,284.697,579.299,289.65,579.299,295.762z M560.031,301.544
			c0,3.139,1.541,5.23,4.293,5.23c4.35,0,6.772-6.332,6.772-10.956c0-2.478-1.046-5.121-4.239-5.121
			C562.288,290.697,559.975,297.358,560.031,301.544z"/>
		<path fill="#3F327A" d="M579.85,305.123c1.542,0.77,4.459,1.871,7.047,1.871c2.257,0,3.414-1.101,3.414-2.423
			s-0.881-2.257-3.359-3.468c-3.138-1.542-5.725-3.799-5.725-7.158c0-5.56,4.9-9.248,11.837-9.248c3.139,0,5.616,0.604,6.937,1.376
			l-1.871,5.614c-1.156-0.55-3.028-1.211-5.396-1.211c-2.092,0-3.523,0.936-3.523,2.369c0,1.099,1.101,2.035,3.303,3.082
			c2.918,1.488,6.001,3.634,6.001,7.379c0,6.166-5.23,9.468-12.332,9.468c-3.413,0-6.662-0.881-8.259-2.092L579.85,305.123z"/>
	</g>
	<g>
		<polygon fill="#0064A6" points="321.92,261.839 325.191,268.465 332.505,269.528 327.212,274.688 328.461,281.971 321.92,278.531 
			315.381,281.971 316.63,274.688 311.337,269.528 318.651,268.465 		"/>
		<polygon fill="#FFCB00" points="330.275,286.361 333.547,292.987 340.86,294.05 335.567,299.21 336.816,306.493 330.275,303.053 
			323.736,306.493 324.985,299.21 319.693,294.05 327.005,292.987 		"/>
		<polygon fill="#312782" points="293.64,268.263 299.523,280.178 312.673,282.091 303.154,291.365 305.403,304.46 293.64,298.279 
			281.881,304.46 284.128,291.365 274.612,282.091 287.761,280.178 		"/>
	</g>
	<path fill-rule="evenodd" clip-rule="evenodd" fill="#C6C6C5" d="M347.66,10.252c0,0-88.135-3.453-196.271,70.979
		c-27.127,17.36-92.832,70.267-76.63,104.551c10.871,23.003,42.009,15.06,58.21,9.092c11.19-4.163,19.738-10.133,29.978-16.265
		l6.333-36.916l21.48,0.657l28.551-20.646l15.937-16.541l-7.387,37.298l61.324,0.656l-67.078,33.738l-11.082-18.073l-35.306,29.081
		c0,0-48.553,34.777-76.631,43.596c-28.024,8.872-61.377,20.537-85.865-1.809c0,0-26.757-19.55-3.378-67.966
		c17.363-44.853,66.179-80.892,106.131-103.512C133.604,48.205,223.586,1.542,347.66,10.252L347.66,10.252z"/>
	<path fill-rule="evenodd" clip-rule="evenodd" fill="#FFCB00" d="M347.66,1.105c0,0-88.135-3.561-196.271,73.717
		c-27.127,17.965-92.832,72.841-76.63,108.386c10.871,23.878,42.009,15.664,58.21,9.476c11.19-4.328,19.738-10.517,29.978-16.87
		l-34.041-38.337l61.854,0.712l47.655-56.958l-3.167,18.346l-7.387,38.722l61.324,0.657l-67.078,34.997l-11.082,58.491
		l-35.306-41.405c0,0-48.184,31.821-76.261,41.022c-28.077,9.146-62.856,21.084-87.395-2.082c0,0-25.596-21.469-2.217-71.745
		c17.363-46.554,66.179-83.96,106.131-107.401C133.604,40.537,223.586-7.877,347.66,1.105L347.66,1.105z"/>
	<path fill-rule="evenodd" clip-rule="evenodd" fill="#0064A6" d="M234.88,101.659l16.623-19.772l-3.534,19.772l-6.808,36.749
		l62.221,0.711l-69.188,35.764l-10.292,57.121l-10.556-11.719l8.761-46.332l67.078-34.997l-61.324-0.657L234.88,101.659z
		 M183.845,200.57l-58.58,30.616l15.357-18.786c18.999-10.737,35.096-21.361,35.096-21.361L183.845,200.57z"/>
	<path fill-rule="evenodd" clip-rule="evenodd" fill="#0082C5" d="M248.179,100.565l16.097-18.403l-10.502,56.412l49.608,0.546
		l-69.188,35.764l-8.233,45.731l10.87,11.501l10.503-57.615l69.137-35.27l-62.697-0.657l-12.613-0.165l6.808-36.749L248.179,100.565
		z M188.015,205.443l-49.082,25.906l9.448-12.269l35.464-18.511L188.015,205.443z"/>
	<path fill-rule="evenodd" clip-rule="evenodd" fill="#00A6E1" d="M260.633,101.878l16.677-20.155l-10.556,56.96l-12.981-0.109
		L260.633,101.878z M316.471,139.23l13.878,0.219l-70.297,35.872l-10.501,57.067l-10.608-11.773l8.443-46.168L316.471,139.23z
		 M192.29,210.483l-41.007,21.687l10.027-12.652l26.704-14.075L192.29,210.483z"/>
	<path fill-rule="evenodd" clip-rule="evenodd" fill="#C6C6C5" d="M313.889,167.82l11.82,0.259c0,0,5.251-15.342,23.909-17.764
		c0,0,15.101-2.315,26.206,1.339c11.109,3.656,5.254,13.747,5.254,13.747c-2.518,5.046-11.6,7.671-17.235,8.394
		c-7.935,1.03-30.093,3.86-31.734,4.22c0,0-32.172,2.678-32.28,30.378c-0.111,15.96,18.657,17.659,31.952,17.092
		c0,0,19.804,0.825,35.836-13.952c0,0-3.554,13.387,7.551,13.952l9.52,0.259l3.39-11.686l-5.523-0.105c0,0-3.776,0.516-1.697-6.537
		l11.053-37.277c6.399-21.572,0.326-29.037-24.513-30.788C356.948,138.63,324.778,138.835,313.889,167.82L313.889,167.82z
		 M377.357,179.922c-2.408,11.789-6.346,21.16-17.125,27.801c-4.267,2.627-12.147,6.334-24.349,7.673
		c0,0-24.019,3.089-24.019-11.226c0,0-0.492-11.378,15.429-15.238c9.686-2.318,18.824-3.089,28.508-4.481
		C361.161,183.678,371.119,182.084,377.357,179.922L377.357,179.922z"/>
	<path fill-rule="evenodd" clip-rule="evenodd" fill="#FFCB00" d="M309.677,167.77l11.819,0.258c0,0,5.251-15.343,23.909-17.814
		c0,0,15.099-2.318,26.208,1.338c11.107,3.654,5.253,13.798,5.253,13.798c-2.517,5.046-11.6,7.671-17.235,8.392
		c-7.933,0.978-30.093,3.862-31.733,4.222c0,0-32.174,2.678-32.283,30.376c-0.11,15.91,18.657,17.609,31.953,17.094
		c0,0,19.806,0.825,35.838-13.952c0,0-3.556,13.334,7.55,13.952l9.52,0.206l3.393-11.688l-5.526-0.102c0,0-3.776,0.513-1.695-6.539
		l11.05-37.225c6.458-21.572,0.328-29.038-24.511-30.79C352.735,138.526,320.62,138.731,309.677,167.77L309.677,167.77z
		 M373.146,179.868c-2.41,11.792-6.294,21.163-17.071,27.804c-4.323,2.625-12.202,6.28-24.403,7.67c0,0-24.021,3.039-24.021-11.274
		c0,0-0.492-11.378,15.43-15.187c9.684-2.318,18.822-3.091,28.505-4.481C356.948,183.627,366.908,182.032,373.146,179.868
		L373.146,179.868z"/>
	<path fill-rule="evenodd" clip-rule="evenodd" fill="#C6C6C5" d="M418.089,140.618L393.4,225.332l12.011,0.105l13.344-44.579
		c6.841-22.762,21.908-30.716,45.986-31.45c5.117-0.158,25.134,1.046,14.181,30.56l-13.736,45.887l11.176,0.106l18.184-62.425
		c6.616-22.604-19.072-26.005-37.868-23.336c-11.733,1.623-23.076,7.535-30.859,15.959l4.447-15.593L418.089,140.618z"/>
	<path fill-rule="evenodd" clip-rule="evenodd" fill="#FFCB00" d="M413.807,140.565l-24.689,84.663l12.013,0.156l13.344-44.582
		c6.839-22.813,21.908-30.714,45.984-31.447c5.117-0.157,25.189,1.045,14.181,30.557l-13.736,45.838l11.176,0.103l18.184-62.37
		c6.616-22.604-19.072-26.059-37.868-23.39c-11.733,1.675-23.076,7.535-30.86,16.013l4.447-15.593L413.807,140.565z"/>
	<path fill-rule="evenodd" clip-rule="evenodd" fill="#C6C6C5" d="M568.527,197.33l13.569,0.158c0,0-13.9,28.252-50.039,28.513
		c0,0-48.648,3.087-32.58-48.342c0,0,11.232-33.849,48.65-37.668c0,0,54.929-8.581,40.695,45.883l-78.781-0.785
		c0,0-9.008,25.373,18.125,30.24C528.165,215.329,557.466,218.835,568.527,197.33L568.527,197.33z M512.431,175.567l66.162,0.627
		c4.003-17.474-9.562-26.63-26.077-26.473c-15.901,0.158-27.743,6.384-36.082,18.782
		C514.375,171.591,512.431,174.782,512.431,175.567L512.431,175.567z"/>
	<path fill-rule="evenodd" clip-rule="evenodd" fill="#FFCB00" d="M564.249,197.278l13.566,0.158c0,0-13.9,28.251-49.984,28.462
		c0,0-48.703,3.138-32.635-48.29c0,0,11.23-33.903,48.648-37.723c0,0,54.93-8.526,40.697,45.884l-78.781-0.785
		c0,0-9.008,25.427,18.127,30.291C523.886,215.276,553.184,218.781,564.249,197.278L564.249,197.278z M508.15,175.464l66.162,0.677
		c4.003-17.473-9.562-26.681-26.077-26.524c-15.845,0.158-27.743,6.383-36.082,18.835
		C510.097,171.539,508.15,174.729,508.15,175.464L508.15,175.464z"/>
	<g>
		<path fill="#FFFFFF" d="M346.727,256.23h3.419l-3.185,16.716h7.745l-0.555,2.979h-11.164L346.727,256.23z"/>
		<path fill="#FFFFFF" d="M365.637,275.107c-1.402,0.731-3.302,1.11-5.026,1.11c-3.944,0-5.844-2.395-5.844-5.874
			c0-4.295,3.156-8.971,8.066-8.971c2.805,0,4.588,1.636,4.588,4.002c0,3.653-3.828,4.822-9.322,4.707
			c-0.059,0.495,0.058,1.459,0.379,2.015c0.555,0.964,1.578,1.461,2.923,1.461c1.608,0,2.893-0.41,3.916-0.936L365.637,275.107z
			 M362.394,263.914c-2.133,0-3.537,1.9-3.946,3.625c3.507,0.059,5.757-0.438,5.757-2.133
			C364.205,264.47,363.474,263.914,362.394,263.914z"/>
		<path fill="#FFFFFF" d="M369.644,281.711l2.776-14.729c0.322-1.695,0.643-3.828,0.818-5.289h3.069l-0.322,2.338h0.059
			c1.227-1.695,2.98-2.659,4.821-2.659c3.069,0,4.501,2.513,4.501,5.289c0,4.969-3.448,9.586-8.299,9.586
			c-1.315,0-2.309-0.292-2.835-0.615h-0.058l-1.14,6.079H369.644z M374.729,272.915c0.526,0.438,1.286,0.702,2.279,0.702
			c2.63,0,4.793-3.507,4.793-6.692c0-1.315-0.584-2.776-2.251-2.776c-1.724,0-3.594,1.956-4.207,5.289L374.729,272.915z"/>
		<path fill="#FFFFFF" d="M399.806,267.275c0,4.822-3.39,8.973-8.241,8.973c-3.594,0-5.816-2.484-5.816-5.874
			c0-4.822,3.361-9.001,8.212-9.001C397.789,261.373,399.806,264.119,399.806,267.275z M389.256,270.284
			c0,1.959,1.052,3.333,2.776,3.333c2.542,0,4.237-3.507,4.237-6.343c0-1.461-0.642-3.272-2.718-3.272
			C390.834,264.003,389.256,267.626,389.256,270.284z"/>
		<path fill="#FFFFFF" d="M399.78,275.925l1.841-9.819c0.351-1.695,0.555-3.184,0.731-4.412h3.01l-0.292,2.571h0.059
			c1.315-1.928,3.127-2.892,5.114-2.892c2.016,0,3.624,1.228,3.624,3.915c0,0.643-0.117,1.638-0.263,2.367l-1.578,8.271h-3.39
			l1.52-8.035c0.087-0.526,0.176-1.141,0.176-1.695c0-1.169-0.438-2.046-1.783-2.046c-1.549,0-3.536,1.869-4.149,5.202l-1.228,6.574
			H399.78z"/>
		<path fill="#FFFFFF" d="M425.527,275.107c-1.402,0.731-3.302,1.11-5.026,1.11c-3.945,0-5.844-2.395-5.844-5.874
			c0-4.295,3.156-8.971,8.066-8.971c2.805,0,4.588,1.636,4.588,4.002c0,3.653-3.828,4.822-9.322,4.707
			c-0.059,0.495,0.058,1.459,0.379,2.015c0.555,0.964,1.578,1.461,2.923,1.461c1.607,0,2.893-0.41,3.916-0.936L425.527,275.107z
			 M422.284,263.914c-2.133,0-3.537,1.9-3.946,3.625c3.507,0.059,5.757-0.438,5.757-2.133
			C424.095,264.47,423.365,263.914,422.284,263.914z"/>
		<path fill="#FFFFFF" d="M426.875,275.925l1.811-9.819c0.322-1.695,0.555-3.184,0.701-4.412h2.952l-0.292,2.484h0.029
			c1.344-1.9,3.097-2.805,4.938-2.805c2.221,0,3.244,1.402,3.361,2.923c1.256-1.959,3.069-2.894,5.026-2.923
			c1.959,0,3.478,1.256,3.478,3.799c0,0.613-0.117,1.664-0.233,2.425l-1.578,8.327h-3.302l1.49-7.948
			c0.088-0.584,0.205-1.228,0.205-1.812c0-1.197-0.497-2.015-1.754-2.015c-1.549,0-3.273,1.956-3.828,4.966l-1.287,6.809h-3.273
			l1.52-8.066c0.117-0.585,0.175-1.139,0.175-1.664c0-1.082-0.321-2.046-1.695-2.046c-1.578,0-3.389,2.133-3.916,5.025l-1.227,6.75
			H426.875z"/>
		<path fill="#FFFFFF" d="M463.789,267.275c0,4.822-3.39,8.973-8.241,8.973c-3.594,0-5.815-2.484-5.815-5.874
			c0-4.822,3.36-9.001,8.211-9.001C461.773,261.373,463.789,264.119,463.789,267.275z M453.239,270.284
			c0,1.959,1.052,3.333,2.776,3.333c2.542,0,4.237-3.507,4.237-6.343c0-1.461-0.642-3.272-2.718-3.272
			C454.817,264.003,453.239,267.626,453.239,270.284z"/>
		<path fill="#FFFFFF" d="M464.113,272.74c0.731,0.408,2.134,0.964,3.42,0.964c1.373-0.028,2.192-0.818,2.192-1.754
			c0-0.905-0.468-1.461-1.871-2.192c-1.636-0.846-2.805-2.074-2.805-3.71c0-2.748,2.396-4.676,5.757-4.676
			c1.491,0,2.718,0.351,3.361,0.731l-0.877,2.454c-0.527-0.292-1.491-0.643-2.66-0.643c-1.286,0-2.163,0.702-2.163,1.666
			c0,0.79,0.643,1.346,1.841,1.959c1.55,0.846,2.952,2.015,2.952,3.828c0,3.128-2.63,4.851-6.049,4.851
			c-1.665,0-3.215-0.467-3.974-1.023L464.113,272.74z"/>
		<path fill="#FFFFFF" d="M482.06,261.693l0.906,7.073c0.174,1.695,0.35,2.774,0.409,3.71h0.087c0.351-0.905,0.76-1.928,1.549-3.623
			l3.537-7.161h3.77l-7.92,14.232h-3.42l-2.425-14.232H482.06z"/>
		<path fill="#FFFFFF" d="M499.246,275.925c0.029-0.846,0.146-1.987,0.263-3.215h-0.087c-1.404,2.63-3.274,3.538-5.085,3.538
			c-2.542,0-4.208-1.987-4.208-4.853c0-4.851,3.39-10.022,10.024-10.022c1.549,0,3.214,0.292,4.296,0.643l-1.461,7.422
			c-0.409,2.133-0.643,4.792-0.585,6.487H499.246z M500.648,264.149c-0.35-0.089-0.789-0.146-1.402-0.146
			c-3.156,0-5.581,3.536-5.581,6.779c0,1.49,0.555,2.718,2.046,2.718c1.578,0,3.506-1.987,4.178-5.61L500.648,264.149z"/>
		<path fill="#FFFFFF" d="M504.187,275.925l3.974-20.749h3.39l-3.946,20.749H504.187z"/>
		<path fill="#FFFFFF" d="M524.382,267.275c0,4.822-3.39,8.973-8.241,8.973c-3.594,0-5.815-2.484-5.815-5.874
			c0-4.822,3.36-9.001,8.211-9.001C522.365,261.373,524.382,264.119,524.382,267.275z M513.832,270.284
			c0,1.959,1.052,3.333,2.777,3.333c2.542,0,4.237-3.507,4.237-6.343c0-1.461-0.642-3.272-2.718-3.272
			C515.41,264.003,513.832,267.626,513.832,270.284z"/>
		<path fill="#FFFFFF" d="M524.356,275.925l1.665-8.766c0.381-2.017,0.556-4.179,0.731-5.466h2.952
			c-0.088,0.964-0.176,1.959-0.322,3.01h0.087c0.965-1.928,2.514-3.33,4.471-3.33c0.234,0,0.497,0.028,0.731,0.059l-0.672,3.331
			c-0.176-0.028-0.409-0.059-0.643-0.059c-2.425,0-3.974,2.456-4.529,5.494l-1.082,5.728H524.356z"/>
	</g>
	<g>
		<path fill="#FFCB00" d="M360.618,312.225c0.056-1.597,0.22-3.413,0.386-5.341h-0.166c-2.478,4.46-5.891,5.946-9.029,5.946
			c-4.845,0-8.148-3.743-8.148-9.359c0-9.084,6.001-18.773,19.27-18.773c3.193,0,6.661,0.604,8.919,1.32l-2.863,14.094
			c-0.661,3.47-1.156,8.755-1.046,12.114H360.618z M362.931,290.918c-0.606-0.109-1.376-0.22-2.147-0.22
			c-5.12,0-8.864,6.277-8.864,11.287c0,2.641,1.046,4.458,3.248,4.458c2.368,0,5.286-2.698,6.497-9.304L362.931,290.918z"/>
		<path fill="#FFCB00" d="M393.266,277.759l-1.431,7.542h5.725l-1.156,6.002h-5.725l-1.817,9.139
			c-0.22,1.101-0.441,2.478-0.441,3.413c0,1.322,0.551,2.257,2.257,2.257c0.715,0,1.486,0,2.202-0.111l-0.936,6.223
			c-0.991,0.384-2.973,0.604-4.68,0.604c-4.735,0-6.993-2.421-6.993-5.78c0-1.487,0.166-2.973,0.551-5.01l2.092-10.735h-3.413
			l1.101-6.002h3.469l1.1-5.671L393.266,277.759z"/>
		<path fill="#FFCB00" d="M423.601,285.301l-3.468,18.168c-0.661,3.413-1.046,6.332-1.432,8.755h-6.991l0.495-4.406h-0.11
			c-2.752,3.525-6.056,5.01-9.304,5.01c-4.293,0-6.881-2.421-6.881-7.542c0-1.485,0.165-3.082,0.551-4.955l2.807-15.03h7.928
			l-2.698,14.426c-0.22,1.211-0.385,2.532-0.385,3.522c0,1.762,0.661,3.139,2.698,3.139c2.697,0,5.451-3.248,6.496-8.644
			l2.368-12.443H423.601z"/>
		<path fill="#FFCB00" d="M423.382,305.123c1.542,0.77,4.459,1.871,7.047,1.871c2.257,0,3.413-1.101,3.413-2.423
			s-0.881-2.257-3.358-3.468c-3.139-1.542-5.726-3.799-5.726-7.158c0-5.56,4.9-9.248,11.837-9.248c3.139,0,5.616,0.604,6.937,1.376
			l-1.871,5.614c-1.156-0.55-3.028-1.211-5.396-1.211c-2.092,0-3.524,0.936-3.524,2.369c0,1.099,1.101,2.035,3.303,3.082
			c2.918,1.488,6.001,3.634,6.001,7.379c0,6.166-5.23,9.468-12.332,9.468c-3.413,0-6.662-0.881-8.259-2.092L423.382,305.123z"/>
		<path fill="#FFCB00" d="M450.8,305.123c1.542,0.77,4.459,1.871,7.047,1.871c2.257,0,3.413-1.101,3.413-2.423
			s-0.881-2.257-3.359-3.468c-3.138-1.542-5.725-3.799-5.725-7.158c0-5.56,4.9-9.248,11.837-9.248c3.139,0,5.616,0.604,6.937,1.376
			l-1.871,5.614c-1.156-0.55-3.028-1.211-5.396-1.211c-2.092,0-3.523,0.936-3.523,2.369c0,1.099,1.101,2.035,3.303,3.082
			c2.918,1.488,6.001,3.634,6.001,7.379c0,6.166-5.23,9.468-12.332,9.468c-3.413,0-6.662-0.881-8.259-2.092L450.8,305.123z"/>
		<path fill="#FFCB00" d="M499.137,285.301l-3.468,18.168c-0.661,3.413-1.046,6.332-1.432,8.755h-6.992l0.495-4.406h-0.11
			c-2.753,3.525-6.056,5.01-9.305,5.01c-4.293,0-6.881-2.421-6.881-7.542c0-1.485,0.165-3.082,0.551-4.955l2.807-15.03h7.928
			l-2.698,14.426c-0.22,1.211-0.385,2.532-0.385,3.522c0,1.762,0.661,3.139,2.698,3.139c2.697,0,5.451-3.248,6.496-8.644
			l2.368-12.443H499.137z"/>
		<path fill="#FFCB00" d="M520.444,310.683c-3.137,1.597-7.047,2.092-10.02,2.092c-7.708,0-11.671-4.349-11.671-11.342
			c0-8.203,5.946-16.735,15.691-16.735c5.451,0,9.359,3.027,9.359,8.037c0,6.881-6.662,9.359-17.453,9.084
			c0,0.77,0.276,1.983,0.827,2.753c1.046,1.376,2.863,2.092,5.175,2.092c2.918,0,5.396-0.661,7.543-1.706L520.444,310.683z
			 M513.452,290.477c-3.689,0-5.781,3.027-6.332,5.562c6.166,0.055,9.25-0.827,9.25-3.25
			C516.371,291.413,515.269,290.477,513.452,290.477z"/>
		<path fill="#FFCB00" d="M522.702,312.225l3.413-18.169c0.661-3.413,1.102-6.386,1.432-8.755h7.047l-0.551,4.46h0.11
			c2.532-3.525,5.891-5.064,9.469-5.064c4.405,0,6.882,2.698,6.882,7.322c0,1.211-0.22,3.248-0.441,4.569l-2.973,15.636h-7.928
			l2.808-14.921c0.165-0.936,0.275-2.037,0.275-3.027c0-1.871-0.661-3.193-2.642-3.193c-2.588,0-5.615,3.248-6.717,9.193
			l-2.257,11.948H522.702z M532.943,281.504c0.606-4.46,2.533-6.938,5.286-6.938c1.541,0,2.478,0.495,3.413,1.102
			c0.826,0.55,1.541,1.047,2.147,1.047c0.881,0,1.266-0.497,1.761-2.423h3.799c-0.716,4.79-2.533,6.772-5.396,6.772
			c-1.486,0-2.697-0.497-3.524-1.101c-0.771-0.552-1.376-0.936-2.092-0.936c-0.715,0-1.266,1.045-1.542,2.478H532.943z"/>
		<path fill="#FFCB00" d="M579.299,295.762c0,9.856-6.717,17.067-16.076,17.067c-6.827,0-11.396-4.458-11.396-11.121
			c0-9.359,6.496-17.01,16.076-17.01C575.115,284.697,579.299,289.65,579.299,295.762z M560.031,301.544
			c0,3.139,1.541,5.23,4.293,5.23c4.35,0,6.772-6.332,6.772-10.956c0-2.478-1.046-5.121-4.239-5.121
			C562.288,290.697,559.975,297.358,560.031,301.544z"/>
		<path fill="#FFCB00" d="M579.85,305.123c1.542,0.77,4.459,1.871,7.047,1.871c2.257,0,3.414-1.101,3.414-2.423
			s-0.881-2.257-3.359-3.468c-3.138-1.542-5.725-3.799-5.725-7.158c0-5.56,4.9-9.248,11.837-9.248c3.139,0,5.616,0.604,6.937,1.376
			l-1.871,5.614c-1.156-0.55-3.028-1.211-5.396-1.211c-2.092,0-3.523,0.936-3.523,2.369c0,1.099,1.101,2.035,3.303,3.082
			c2.918,1.488,6.001,3.634,6.001,7.379c0,6.166-5.23,9.468-12.332,9.468c-3.413,0-6.662-0.881-8.259-2.092L579.85,305.123z"/>
	</g>
	<polygon fill="#FFFFFF" points="321.92,261.839 325.191,268.465 332.505,269.528 327.212,274.688 328.461,281.971 321.92,278.531 
		315.381,281.971 316.63,274.688 311.337,269.528 318.651,268.465 	"/>
	<polygon fill="#00A6E1" points="330.275,286.361 333.547,292.987 340.86,294.05 335.567,299.21 336.816,306.493 330.275,303.053 
		323.736,306.493 324.985,299.21 319.693,294.05 327.005,292.987 	"/>
	<polygon fill="#FFCB00" points="293.64,268.263 299.523,280.178 312.673,282.091 303.154,291.365 305.403,304.46 293.64,298.279 
		281.881,304.46 284.128,291.365 274.612,282.091 287.761,280.178 	"/>
</g>
</svg>
