<?xml version="1.0" encoding="utf-8"?>
<!-- Generator: Adobe Illustrator 17.0.0, SVG Export Plug-In . SVG Version: 6.00 Build 0)  -->
<!DOCTYPE svg PUBLIC "-//W3C//DTD SVG 1.1//EN" "http://www.w3.org/Graphics/SVG/1.1/DTD/svg11.dtd">
<svg version="1.1" id="Capa_1" xmlns="http://www.w3.org/2000/svg" xmlns:xlink="http://www.w3.org/1999/xlink" x="0px" y="0px"
	 width="402.115px" height="121.576px" viewBox="0 0 402.115 121.576" enable-background="new 0 0 402.115 121.576"
	 xml:space="preserve">
<rect x="1.717" y="-16.218" display="none" fill="#082C60" width="400" height="150"/>
<g>
	<g>
		<path fill-rule="evenodd" clip-rule="evenodd" fill="#FFFFFF" d="M254.279,51.384c-3.157-2.87-7.536-4.31-13.147-4.31h-0.261
			c-1.979,0.013-4.104,0.214-6.374,0.6c-2.374,0.395-4.75,1.029-7.126,1.893c0,1.838,0.192,3.416,0.568,4.731
			c0.371,1.323,0.941,2.731,1.699,4.224c2.397-0.877,7.707-1.723,11.233-1.672c0.65,0.008,1.251,0.051,1.749,0.128
			c1.107,0.168,2.04,0.501,2.792,0.992c0.755,0.488,1.35,1.163,1.782,2.027c0.427,0.853,0.648,1.976,0.648,3.36l-0.008,1.032
			c-1.883-0.173-3.611-0.259-5.174-0.261c-0.597,0-1.195,0.013-1.789,0.056c-1.563,0.093-3.126,0.32-4.683,0.669
			c-2.163,0.491-4.117,1.293-5.87,2.405c-1.752,1.125-3.184,2.616-4.291,4.483c-1.109,1.867-1.659,4.174-1.661,6.928
			c0,2.76,0.437,5.083,1.331,6.979c0.885,1.901,2.152,3.445,3.797,4.656c1.651,1.211,3.616,2.072,5.905,2.584
			c1.701,0.384,3.523,0.624,5.472,0.731c0.677,0.032,1.384,0.048,2.099,0.048c3.398,0.003,6.448-0.288,9.142-0.856
			c2.696-0.573,4.989-1.176,6.878-1.806l0.016-25.841C259.004,58.857,257.431,54.259,254.279,51.384 M247.364,84.005h-6.494h-0.899
			c-3.088-0.005-5.609-2.581-5.609-5.734s2.528-5.726,5.614-5.726h0.894l6.499,0.003L247.364,84.005z"/>
		<path fill-rule="evenodd" clip-rule="evenodd" fill="#FFFFFF" d="M304.06,93.034l0.013-25.252
			c0.011-11.296-8.512-20.539-18.929-20.545c-10.425-0.003-18.956,9.235-18.964,20.532l-0.011,25.046
			c3.998,0.955,7.963,1.067,11.886,0.208l0.096-27.9c0.013-4.166,3.144-7.568,6.984-7.566c3.832,0.005,6.987,3.408,6.976,7.576
			l-0.093,27.772C296.073,93.856,300.089,93.946,304.06,93.034"/>
		<path fill-rule="evenodd" clip-rule="evenodd" fill="#FFFFFF" d="M217.184,92.69c-2.8,0.763-6.773,0.981-10.44,0V71.833
			c0-2.971-0.917-5.523-2.765-7.67c-1.84-2.141-4.043-3.213-6.598-3.213c-2.603,0-4.832,1.059-6.665,3.171
			c-1.848,2.12-2.768,4.688-2.768,7.712V92.69c-2.968,1.309-7.051,1.309-10.443,0V34.712c3.816-1.088,7.904-1.088,10.443,0v17.993
			c2.92-1.925,6.054-2.883,9.398-2.883c5.28,0,10.659,2.133,14.329,6.39c3.677,4.254,5.509,9.473,5.509,15.622V92.69z"/>
		<path fill-rule="evenodd" clip-rule="evenodd" fill="#FFFFFF" d="M362.391,93.133c-5.872,6.438-12.838,9.659-20.902,9.659
			c-8.502,0-15.678-3.326-21.516-9.979c-5.838-6.656-8.758-14.833-8.758-24.532c0-9.617,2.942-17.75,8.814-24.404
			c5.875-6.651,13.03-9.984,21.46-9.984c7.688,0,14.393,2.965,20.113,8.894c-0.435,5.536-3.776,10.534-9.147,14.035
			c-2.942-3.694-6.595-5.539-10.966-5.539c-4.134,0-7.68,1.653-10.614,4.96c-2.933,3.299-4.403,7.317-4.403,12.038
			c0,4.723,1.469,8.76,4.403,12.107c2.934,3.341,6.48,5.021,10.614,5.021c4.523,0,8.251-1.973,11.19-5.926
			C357.633,83.287,360.87,87.831,362.391,93.133"/>
		<path fill-rule="evenodd" clip-rule="evenodd" fill="#FFFFFF" d="M401.891,73.812c0.144-1.163,0.224-2.32,0.224-3.483
			c0-6.502-1.968-12.001-5.915-16.508c-3.933-4.501-8.758-6.747-14.449-6.747h-0.037c-5.675,0.008-10.502,2.259-14.459,6.747
			c-3.957,4.496-5.944,10.006-5.944,16.508c0,6.555,1.971,12.096,5.912,16.59c3.926,4.488,8.758,6.734,14.491,6.749h0.037
			c5.395,0,11.265-1.485,15.179-5.725c0.181-4.352-1.901-7.521-6.259-9.491c-3.11,2.584-6.211,3.757-8.958,3.861
			c-5.118,0.184-9.027-3.36-9.648-8.502h9.648H401.891z M381.714,58.833h0.037c4.016,0,6.966,2.061,8.846,6.184h-8.883h-8.888
			C374.703,60.91,377.663,58.843,381.714,58.833z"/>
		<path fill-rule="evenodd" clip-rule="evenodd" fill="#FFFFFF" d="M171.784,93.133c-5.875,6.438-12.843,9.659-20.9,9.659
			c-8.51,0-15.681-3.326-21.524-9.979c-5.832-6.656-8.75-14.833-8.75-24.532c0-9.617,2.941-17.75,8.811-24.404
			c5.87-6.651,13.03-9.984,21.462-9.984c7.68,0,14.39,2.965,20.11,8.894c-0.435,5.536-3.776,10.534-9.147,14.035
			c-2.939-3.694-6.595-5.539-10.963-5.539c-4.142,0-7.678,1.653-10.619,4.96c-2.936,3.299-4.403,7.317-4.403,12.038
			c0,4.723,1.467,8.76,4.403,12.105c2.942,3.344,6.478,5.024,10.619,5.024c4.525,0,8.248-1.976,11.185-5.926
			C167.026,83.287,170.264,87.831,171.784,93.133"/>
		<g>
			<path fill-rule="evenodd" clip-rule="evenodd" fill="#FDC800" d="M77.206,28.701c0,7.694-6.08,13.926-13.571,13.926
				c-7.496,0-13.571-6.232-13.571-13.926s6.075-13.931,13.571-13.931C71.126,14.769,77.206,21.007,77.206,28.701z"/>
			<path fill-rule="evenodd" clip-rule="evenodd" fill="#FFE500" d="M32.812,80.14L5.078,107.064
				c-11.745,11.411,0.277,19.017,10.822,10.814l44.066-27.812l31.399,19.593c11.259,7.024,19.804-0.525,9.328-13.067
				c-5.846-6.998-11.563-14.126-17.622-20.942l60.899-60.712c11.379-11.35,0.944-16.747-10.699-7.76L62.003,52.16L29.897,34.807
				c-11.857-6.4-19.91-0.274-9.491,12.641l20.236,25.089L32.812,80.14z"/>
			<path fill-rule="evenodd" clip-rule="evenodd" fill="#FDC800" d="M60.163,90.189l32.17,20.041
				c10.745,6.36,21.358-0.869,4.043-18.846c1.931,2.531,7.76,9.753-0.76,11.899c-8.51,2.147-31.868-11.016-34.669-12.651
				L60.163,90.189z"/>
			<path fill-rule="evenodd" clip-rule="evenodd" fill="#51AD32" d="M62.003,52.16L30.7,34.559
				c-11.547-6.365-22.414-0.68-8.795,14.745c-1.459-5.419,2.405-11.136,9.107-8.702l16.987,6.166
				C54.163,49,59.891,51.251,62.003,52.16z"/>
			<path fill-rule="evenodd" clip-rule="evenodd" fill="#009EE2" d="M15.739,96.72L5.125,107.024
				c-12.214,11.934-0.101,19.113,10.374,11.265l43.573-27.658c-8.342,4.31-26.766,14.798-34.722,14.39
				C16.393,104.616,15.302,100.077,15.739,96.72z"/>
			<path fill-rule="evenodd" clip-rule="evenodd" fill="#E20613" d="M132.364,26.509l8.054-7.478
				c8.326-8.43,10.014-12.843,7.67-15.305c-2.357-2.496-8.59-1.061-15.217,3.024L62.003,52.16
				C90.522,35.693,110.525,22.946,132.364,26.509z"/>
			<path fill-rule="evenodd" clip-rule="evenodd" fill="#FFE500" d="M76.99,27.191c0,6.619-5.603,11.982-12.51,11.982
				c-6.915,0-12.513-5.363-12.513-11.982c0-6.614,5.598-11.979,12.513-11.979C71.387,15.212,76.99,20.578,76.99,27.191z"/>
		</g>
	</g>
	<g>
		<path fill="#FCFCFC" d="M174.559,4.099l-1.741,1.537c-0.611-0.851-1.233-1.276-1.867-1.276c-0.308,0-0.561,0.083-0.757,0.248
			c-0.196,0.166-0.294,0.352-0.294,0.559s0.07,0.403,0.21,0.587c0.19,0.247,0.766,0.775,1.725,1.587
			c0.896,0.75,1.44,1.223,1.631,1.419c0.477,0.481,0.814,0.942,1.014,1.381c0.199,0.439,0.299,0.919,0.299,1.44
			c0,1.013-0.351,1.85-1.051,2.51c-0.7,0.661-1.613,0.991-2.74,0.991c-0.879,0-1.646-0.215-2.299-0.646
			c-0.652-0.431-1.211-1.108-1.677-2.032l1.977-1.192c0.594,1.091,1.278,1.637,2.052,1.637c0.403,0,0.742-0.118,1.018-0.353
			c0.274-0.235,0.412-0.506,0.412-0.814c0-0.28-0.104-0.56-0.312-0.84c-0.208-0.28-0.664-0.708-1.371-1.285
			c-1.346-1.097-2.215-1.943-2.607-2.54c-0.392-0.596-0.588-1.19-0.588-1.784c0-0.856,0.326-1.591,0.979-2.204
			c0.653-0.613,1.459-0.919,2.417-0.919c0.616,0,1.203,0.143,1.761,0.428S173.91,3.343,174.559,4.099z"/>
		<path fill="#FCFCFC" d="M176.851,2.419h2.334v12.35h-2.334V2.419z"/>
		<path fill="#FCFCFC" d="M183.028,2.419h2.29l2.863,8.614l2.889-8.614h2.289l2.072,12.35h-2.273l-1.324-7.799l-2.624,7.799h-2.071
			l-2.601-7.799l-1.356,7.799h-2.292L183.028,2.419z"/>
		<path fill="#FCFCFC" d="M197.218,2.419h2.359v7.986c0,0.688,0.061,1.174,0.181,1.459s0.319,0.513,0.596,0.684
			c0.277,0.17,0.611,0.256,1.004,0.256c0.414,0,0.771-0.095,1.07-0.286c0.299-0.19,0.506-0.432,0.621-0.725
			c0.114-0.294,0.172-0.854,0.172-1.682V2.419h2.359v7.363c0,1.242-0.07,2.104-0.21,2.585c-0.14,0.481-0.407,0.946-0.802,1.394
			s-0.85,0.779-1.364,0.995s-1.114,0.323-1.797,0.323c-0.896,0-1.675-0.206-2.338-0.617c-0.663-0.411-1.138-0.926-1.423-1.544
			c-0.286-0.619-0.429-1.664-0.429-3.136V2.419z"/>
		<path fill="#FCFCFC" d="M208.309,2.419h2.352v10.108h3.425v2.242h-5.776V2.419z"/>
		<path fill="#FCFCFC" d="M219.641,2.419h2.385l4.75,12.35h-2.443l-0.967-2.544h-5.039l-1.005,2.544h-2.442L219.641,2.419z
			 M220.848,5.694l-1.657,4.24h3.305L220.848,5.694z"/>
		<path fill="#FCFCFC" d="M228.602,2.419h2.785c1.795,0,3.129,0.223,4.001,0.667c0.872,0.445,1.591,1.168,2.155,2.17
			c0.565,1.002,0.848,2.172,0.848,3.509c0,0.952-0.158,1.826-0.474,2.624c-0.316,0.798-0.752,1.459-1.309,1.986
			c-0.557,0.526-1.159,0.89-1.808,1.091c-0.649,0.202-1.773,0.302-3.372,0.302h-2.827V2.419z M230.936,4.687v7.791h1.092
			c1.074,0,1.854-0.123,2.338-0.37c0.483-0.247,0.88-0.661,1.188-1.244c0.308-0.583,0.462-1.3,0.462-2.151
			c0-1.311-0.366-2.328-1.1-3.051c-0.66-0.65-1.721-0.975-3.182-0.975H230.936z"/>
		<path fill="#FCFCFC" d="M246.463,2.109c1.747,0,3.25,0.633,4.507,1.897c1.258,1.265,1.887,2.807,1.887,4.626
			c0,1.802-0.621,3.328-1.861,4.576s-2.746,1.872-4.516,1.872c-1.854,0-3.394-0.641-4.62-1.922s-1.84-2.804-1.84-4.567
			c0-1.181,0.285-2.267,0.856-3.257s1.357-1.776,2.356-2.355C244.233,2.398,245.309,2.109,246.463,2.109z M246.438,4.409
			c-1.143,0-2.104,0.397-2.883,1.192c-0.778,0.795-1.168,1.805-1.168,3.031c0,1.366,0.49,2.446,1.471,3.241
			c0.762,0.621,1.636,0.932,2.622,0.932c1.115,0,2.064-0.403,2.85-1.209c0.784-0.806,1.177-1.8,1.177-2.98
			c0-1.176-0.396-2.17-1.186-2.985S247.57,4.409,246.438,4.409z"/>
		<path fill="#FCFCFC" d="M255.233,2.419h2.49c1.364,0,2.336,0.122,2.914,0.365c0.579,0.244,1.044,0.648,1.396,1.213
			s0.528,1.234,0.528,2.006c0,0.812-0.194,1.49-0.584,2.036c-0.389,0.545-0.975,0.958-1.758,1.238l2.925,5.491h-2.569l-2.777-5.23
			h-0.215v5.23h-2.351V2.419z M257.584,7.247h0.736c0.748,0,1.263-0.098,1.544-0.295c0.282-0.196,0.423-0.522,0.423-0.977
			c0-0.27-0.069-0.504-0.209-0.703c-0.14-0.2-0.326-0.343-0.561-0.43s-0.664-0.131-1.289-0.131h-0.645V7.247z"/>
		<path fill="#FCFCFC" d="M269.866,2.419h2.785c1.795,0,3.129,0.223,4.001,0.667c0.872,0.445,1.591,1.168,2.155,2.17
			c0.565,1.002,0.848,2.172,0.848,3.509c0,0.952-0.158,1.826-0.474,2.624c-0.316,0.798-0.752,1.459-1.309,1.986
			c-0.557,0.526-1.159,0.89-1.808,1.091c-0.649,0.202-1.773,0.302-3.372,0.302h-2.827V2.419z M272.2,4.687v7.791h1.092
			c1.074,0,1.854-0.123,2.338-0.37c0.483-0.247,0.88-0.661,1.188-1.244c0.308-0.583,0.462-1.3,0.462-2.151
			c0-1.311-0.366-2.328-1.1-3.051c-0.66-0.65-1.721-0.975-3.182-0.975H272.2z"/>
		<path fill="#FCFCFC" d="M281.905,2.419h6.741V4.72h-4.407v2.233h4.407v2.258h-4.407v3.25h4.407v2.309h-6.741V2.419z"/>
		<path fill="#FCFCFC" d="M295.64,2.419h2.493c1.349,0,2.321,0.125,2.918,0.374c0.596,0.25,1.065,0.652,1.41,1.209
			c0.344,0.557,0.517,1.225,0.517,2.002c0,0.862-0.226,1.579-0.676,2.149c-0.451,0.571-1.063,0.968-1.835,1.192
			c-0.453,0.128-1.279,0.193-2.477,0.193v5.23h-2.351V2.419z M297.991,7.247h0.747c0.588,0,0.996-0.042,1.226-0.126
			c0.229-0.084,0.41-0.223,0.542-0.417c0.131-0.193,0.197-0.428,0.197-0.703c0-0.478-0.185-0.826-0.555-1.044
			c-0.269-0.163-0.767-0.245-1.494-0.245h-0.663V7.247z"/>
		<path fill="#FCFCFC" d="M305.438,2.419h2.49c1.364,0,2.336,0.122,2.914,0.365c0.579,0.244,1.044,0.648,1.396,1.213
			s0.528,1.234,0.528,2.006c0,0.812-0.194,1.49-0.584,2.036c-0.389,0.545-0.975,0.958-1.758,1.238l2.925,5.491h-2.569l-2.777-5.23
			h-0.215v5.23h-2.351V2.419z M307.789,7.247h0.736c0.748,0,1.263-0.098,1.544-0.295c0.282-0.196,0.423-0.522,0.423-0.977
			c0-0.27-0.069-0.504-0.209-0.703c-0.14-0.2-0.326-0.343-0.561-0.43s-0.664-0.131-1.289-0.131h-0.645V7.247z"/>
		<path fill="#FCFCFC" d="M315.26,2.419h6.741V4.72h-4.407v2.233h4.407v2.258h-4.407v3.25h4.407v2.309h-6.741V2.419z"/>
		<path fill="#FCFCFC" d="M325.391,2.419h2.29l2.863,8.614l2.889-8.614h2.289l2.072,12.35h-2.273l-1.324-7.799l-2.624,7.799h-2.071
			l-2.601-7.799l-1.356,7.799h-2.292L325.391,2.419z"/>
		<path fill="#FCFCFC" d="M339.498,2.419h2.334v12.35h-2.334V2.419z"/>
		<path fill="#FCFCFC" d="M350.307,2.109c1.747,0,3.25,0.633,4.507,1.897c1.258,1.265,1.887,2.807,1.887,4.626
			c0,1.802-0.621,3.328-1.861,4.576s-2.746,1.872-4.516,1.872c-1.854,0-3.394-0.641-4.62-1.922s-1.84-2.804-1.84-4.567
			c0-1.181,0.285-2.267,0.856-3.257s1.357-1.776,2.356-2.355C348.077,2.398,349.153,2.109,350.307,2.109z M350.282,4.409
			c-1.143,0-2.104,0.397-2.883,1.192c-0.778,0.795-1.168,1.805-1.168,3.031c0,1.366,0.49,2.446,1.471,3.241
			c0.762,0.621,1.636,0.932,2.622,0.932c1.115,0,2.064-0.403,2.85-1.209c0.784-0.806,1.177-1.8,1.177-2.98
			c0-1.176-0.396-2.17-1.186-2.985S351.414,4.409,350.282,4.409z"/>
		<path fill="#FCFCFC" d="M365.398,4.099l-1.741,1.537c-0.611-0.851-1.233-1.276-1.867-1.276c-0.308,0-0.561,0.083-0.757,0.248
			c-0.196,0.166-0.294,0.352-0.294,0.559s0.07,0.403,0.21,0.587c0.19,0.247,0.766,0.775,1.725,1.587
			c0.896,0.75,1.44,1.223,1.631,1.419c0.477,0.481,0.814,0.942,1.014,1.381c0.199,0.439,0.299,0.919,0.299,1.44
			c0,1.013-0.351,1.85-1.051,2.51c-0.7,0.661-1.613,0.991-2.74,0.991c-0.879,0-1.646-0.215-2.299-0.646
			c-0.652-0.431-1.211-1.108-1.677-2.032l1.977-1.192c0.594,1.091,1.278,1.637,2.052,1.637c0.403,0,0.742-0.118,1.018-0.353
			c0.274-0.235,0.412-0.506,0.412-0.814c0-0.28-0.104-0.56-0.312-0.84c-0.208-0.28-0.664-0.708-1.371-1.285
			c-1.346-1.097-2.215-1.943-2.607-2.54c-0.392-0.596-0.588-1.19-0.588-1.784c0-0.856,0.326-1.591,0.979-2.204
			c0.653-0.613,1.459-0.919,2.417-0.919c0.616,0,1.203,0.143,1.761,0.428S364.749,3.343,365.398,4.099z"/>
	</g>
</g>
</svg>
